<?xml version="1.0" encoding="utf-8"?>
<!-- Generator: Adobe Illustrator 16.0.3, SVG Export Plug-In . SVG Version: 6.00 Build 0)  -->
<!DOCTYPE svg PUBLIC "-//W3C//DTD SVG 1.1//EN" "http://www.w3.org/Graphics/SVG/1.1/DTD/svg11.dtd">
<svg version="1.1" id="Layer_1" xmlns="http://www.w3.org/2000/svg" xmlns:xlink="http://www.w3.org/1999/xlink" x="0px" y="0px"
	 width="439.371px" height="439.37px" viewBox="-19.685 -2.458 439.371 439.37"
	 enable-background="new -19.685 -2.458 439.371 439.37" xml:space="preserve">
<g>
	<path fill="#E8981B" d="M251.934,333.734c-12.811,0-25.17-1.893-36.813-5.398c10.584,2.953,21.752,4.533,33.293,4.533
		c42.104,0,79.217-21.021,101.117-52.994c-20.244,20.32-48.441,32.926-79.629,32.926c-61.617,0-111.568-49.197-111.568-109.891
		c0-57.708,45.162-105.022,102.572-109.535c-4.109-0.411-8.275-0.623-12.492-0.623c-67.317,0-121.889,53.752-121.889,120.06
		c0,3.915,0.196,7.786,0.569,11.604c-0.563-4.754-0.862-9.587-0.862-14.491c0-68.379,56.276-123.811,125.698-123.811
		c17.373,0,33.92,3.472,48.973,9.749c-18.154-8.919-38.623-13.944-60.287-13.944c-74.686,0-135.233,59.636-135.233,133.202
		s60.545,133.203,135.233,133.203c63.209,0,116.281-42.715,131.105-100.436c-0.125,0.271-0.262,0.535-0.387,0.809
		C354.819,298.082,307.606,333.734,251.934,333.734z"/>
	<path fill="#E8981B" d="M132.716,114.662c2.339-2.417,4.761-4.751,7.262-6.999c0.809-10.439,0.128-24.69-7.111-35.708
		c-11.164-16.994-17.77-34.122-19.389-38.552c-0.269-0.714-0.397-1.11-0.397-1.11s0.136,0.396,0.397,1.11
		c1.588,4.247,8.172,20.115,23.085,35.768c9.374,9.84,12.656,21.453,13.689,30.083c14.176-10.54,30.373-18.508,47.902-23.231
		c-7.928-8.564-24.832-24.201-47.818-31.042C117.852,35.313,102.209,0,102.209,0s7.83,44.81,22.71,66.686
		C134.48,80.742,134.164,101.567,132.716,114.662z"/>
	<path fill="#E8981B" d="M93.427,199.054c-4.876-5.494-12.118-11.764-20.877-13.578c-14.229-2.947-26.225-8.265-29.281-9.685
		c-0.495-0.227-0.763-0.36-0.763-0.36s0.271,0.131,0.763,0.36c2.947,1.343,14.297,6.035,29.742,6.41
		c9.428,0.227,16.794,4.201,21.686,7.945c2.194-12.524,6.025-24.483,11.256-35.658c-8.729-0.166-24.07,0.875-38.203,8.525
		c-21.303,11.531-47.056,1.591-47.056,1.591s26.603,18.688,45.179,22.224c11.159,2.125,20.941,11.601,26.979,18.832
		C92.992,203.443,93.185,201.242,93.427,199.054z"/>
	<path fill="#E8981B" d="M131.504,316.039c-10.443-0.814-24.729-0.146-35.771,7.105c-16.994,11.164-34.122,17.77-38.554,19.389
		c-0.715,0.268-1.11,0.396-1.11,0.396s0.396-0.137,1.11-0.396c4.246-1.588,20.114-8.172,35.769-23.086
		c9.719-9.26,21.164-12.572,29.759-13.648c-10.754-13.781-19.029-29.592-24.171-46.756c-8.764,8.355-23.263,24.732-29.779,46.631
		c-9.667,32.482-44.979,48.127-44.979,48.127s44.811-7.828,66.687-22.711c14.23-9.678,35.397-9.232,48.458-7.74
		C136.361,321.002,133.888,318.564,131.504,316.039z"/>
	<path fill="#E8981B" d="M349.783,308.734c-2.436,2.957-4.988,5.809-7.648,8.559c-1.426,10.391-2.115,28.117,6.518,41.256
		c11.16,16.994,17.77,34.121,19.389,38.553c0.266,0.717,0.396,1.111,0.396,1.111s-0.137-0.396-0.396-1.111
		c-1.59-4.244-8.174-20.113-23.086-35.768c-10.734-11.266-13.482-24.855-14.01-33.633c-13.975,11.666-30.205,20.713-47.949,26.389
		c7.771,8.475,24.85,24.49,48.184,31.438c32.486,9.666,48.127,44.979,48.127,44.979s-7.83-44.811-22.709-66.688
		C345.02,346.803,347.922,319.863,349.783,308.734z"/>
	<path fill="#E8981B" d="M225.196,360.43c-5.795,4.84-13.098,12.6-15.078,22.166c-2.947,14.23-8.266,26.227-9.684,29.283
		c-0.228,0.494-0.359,0.762-0.359,0.762s0.131-0.27,0.359-0.762c1.344-2.949,6.034-14.297,6.409-29.744
		c0.246-10.154,4.838-17.926,8.811-22.775c-12.801-1.865-25.05-5.428-36.516-10.449c-0.192,8.676,0.783,24.199,8.521,38.49
		c11.532,21.301,1.591,47.053,1.591,47.053s18.688-26.604,22.223-45.178c2.313-12.137,13.318-22.646,20.676-28.479
		C229.813,360.729,227.496,360.607,225.196,360.43z"/>
</g>
<g>
	<path fill="#E8981B" d="M1500.691,711.325c-19.369,0-35.071,15.701-35.071,35.069c0,19.369,15.702,35.07,35.071,35.07
		c19.368,0,35.07-15.701,35.07-35.07C1535.762,727.026,1520.06,711.325,1500.691,711.325z M1500.691,773.795
		c-15.133,0-27.399-12.267-27.399-27.398c0-15.133,12.269-27.397,27.399-27.397s27.398,12.267,27.398,27.397
		C1528.09,761.528,1515.823,773.795,1500.691,773.795z"/>
	<circle fill="#E8981B" cx="1500.691" cy="746.396" r="21.919"/>
</g>
<path fill="#E8981B" d="M1437.878,653.565l62.813,101.197l62.813-101.197H1437.878z M1500.69,724.908l-34.794-56.06h69.589
	L1500.69,724.908z"/>
<g>
	<path fill="#E8981B" d="M1446.598,624.775c-19.368,0-35.07,15.7-35.07,35.069s15.702,35.071,35.07,35.071
		c19.369,0,35.071-15.702,35.071-35.071C1481.669,640.477,1465.967,624.775,1446.598,624.775z M1446.598,687.245
		c-15.132,0-27.398-12.268-27.398-27.398s12.269-27.397,27.398-27.397c15.133,0,27.397,12.268,27.397,27.397
		C1473.995,674.979,1461.73,687.245,1446.598,687.245z"/>
	<circle fill="#E8981B" cx="1446.598" cy="659.847" r="21.919"/>
</g>
<g>
	<path fill="#E8981B" d="M1555.24,624.775c-19.369,0-35.07,15.7-35.07,35.069s15.701,35.071,35.07,35.071
		c19.368,0,35.07-15.702,35.07-35.071C1590.311,640.477,1574.61,624.775,1555.24,624.775z M1555.24,687.245
		c-15.133,0-27.397-12.268-27.397-27.398s12.267-27.397,27.397-27.397s27.398,12.268,27.398,27.397
		C1582.641,674.979,1570.373,687.245,1555.24,687.245z"/>
	<circle fill="#E8981B" cx="1555.24" cy="659.847" r="21.919"/>
</g>
<g>
	<path fill="#E8981B" d="M1235.924,405.055c-45.531,0-82.443,36.91-82.443,82.441c0,45.533,36.912,82.441,82.443,82.441
		c45.527,0,82.438-36.908,82.438-82.441C1318.364,441.965,1281.451,405.055,1235.924,405.055z M1235.924,551.904
		c-35.573,0-64.408-28.836-64.408-64.408c0-35.57,28.835-64.406,64.408-64.406c35.568,0,64.404,28.836,64.404,64.406
		C1300.328,523.068,1271.492,551.904,1235.924,551.904z"/>
	<circle fill="#E8981B" cx="1235.923" cy="487.496" r="51.526"/>
</g>
<g>
	<path fill="#E8981B" d="M1108.765,201.601c-45.529,0-82.44,36.911-82.44,82.442s36.911,82.443,82.44,82.443
		c45.53,0,82.44-36.912,82.44-82.443S1154.296,201.601,1108.765,201.601z M1108.765,348.45c-35.571,0-64.406-28.833-64.406-64.406
		c0-35.569,28.835-64.408,64.406-64.408c35.573,0,64.408,28.839,64.408,64.408C1173.173,319.617,1144.338,348.45,1108.765,348.45z"
		/>
	<circle fill="#E8981B" cx="1108.766" cy="284.043" r="51.525"/>
</g>
<g>
	<path fill="#E8981B" d="M1364.156,201.601c-45.53,0-82.44,36.911-82.44,82.442s36.91,82.443,82.44,82.443
		c45.529,0,82.44-36.912,82.44-82.443S1409.687,201.601,1364.156,201.601z M1364.156,348.45c-35.571,0-64.407-28.833-64.407-64.406
		c0-35.569,28.836-64.408,64.407-64.408c35.57,0,64.406,28.839,64.406,64.408C1428.563,319.617,1399.728,348.45,1364.156,348.45z"/>
	<circle fill="#E8981B" cx="1364.156" cy="284.043" r="51.525"/>
</g>
<path fill="#E8981B" d="M1088.267,269.279l147.657,237.891l147.654-237.891H1088.267z M1335,278.333l-5.334,5.71L1147,278.333H1335z
	 M1123,307l8.666-4L1220,467L1123,307z M1235.922,436.984l-81.791-131.775h163.584L1235.922,436.984z M1252.334,448.334l98-140
	l-88,146L1252.334,448.334z"/>
</svg>
