<?xml version="1.0" encoding="utf-8"?>
<!-- Generator: Adobe Illustrator 16.0.3, SVG Export Plug-In . SVG Version: 6.00 Build 0)  -->
<!DOCTYPE svg PUBLIC "-//W3C//DTD SVG 1.1//EN" "http://www.w3.org/Graphics/SVG/1.1/DTD/svg11.dtd">
<svg version="1.1" id="Layer_1" xmlns="http://www.w3.org/2000/svg" xmlns:xlink="http://www.w3.org/1999/xlink" x="0px" y="0px"
	 width="439.371px" height="439.371px" viewBox="0 0 439.371 439.371" enable-background="new 0 0 439.371 439.371"
	 xml:space="preserve">
<g>
	<path fill="#1C86E5" d="M271.619,333.734c-12.813,0-25.17-1.893-36.814-5.398c10.584,2.953,21.752,4.533,33.293,4.533
		c42.105,0,79.219-21.021,101.117-52.994c-20.244,20.32-48.441,32.926-79.629,32.926c-61.617,0-111.568-49.196-111.568-109.89
		c0-57.708,45.162-105.022,102.572-109.535c-4.109-0.411-8.275-0.623-12.492-0.623c-67.316,0-121.888,53.752-121.888,120.06
		c0,3.915,0.196,7.786,0.569,11.604c-0.563-4.753-0.862-9.586-0.862-14.491c0-68.379,56.275-123.811,125.699-123.811
		c17.373,0,33.92,3.472,48.973,9.749c-18.154-8.919-38.623-13.944-60.287-13.944c-74.686,0-135.234,59.636-135.234,133.202
		s60.546,133.203,135.234,133.203c63.209,0,116.281-42.715,131.105-100.436c-0.125,0.271-0.262,0.535-0.387,0.809
		C374.504,298.082,327.291,333.734,271.619,333.734z"/>
	<path fill="#1C86E5" d="M152.4,114.662c2.34-2.417,4.762-4.751,7.263-6.999c0.809-10.439,0.128-24.69-7.111-35.708
		c-11.164-16.994-17.77-34.122-19.389-38.552c-0.27-0.714-0.397-1.11-0.397-1.11s0.136,0.396,0.397,1.11
		c1.588,4.247,8.172,20.115,23.085,35.768c9.374,9.84,12.656,21.453,13.688,30.083c14.177-10.54,30.373-18.508,47.902-23.231
		c-7.928-8.564-24.832-24.201-47.818-31.042C137.536,35.313,121.893,0,121.893,0s7.83,44.81,22.71,66.686
		C154.164,80.742,153.848,101.567,152.4,114.662z"/>
	<path fill="#1C86E5" d="M113.112,199.054c-4.877-5.494-12.118-11.764-20.878-13.578c-14.229-2.947-26.225-8.265-29.28-9.685
		c-0.495-0.227-0.764-0.36-0.764-0.36s0.271,0.131,0.764,0.36c2.946,1.343,14.297,6.035,29.742,6.41
		c9.428,0.227,16.794,4.201,21.686,7.945c2.194-12.524,6.025-24.483,11.256-35.658c-8.729-0.166-24.07,0.875-38.203,8.525
		c-21.303,11.531-47.056,1.591-47.056,1.591s26.603,18.688,45.179,22.224c11.159,2.125,20.941,11.601,26.979,18.832
		C112.676,203.443,112.869,201.242,113.112,199.054z"/>
	<path fill="#1C86E5" d="M151.188,316.039c-10.442-0.813-24.729-0.146-35.771,7.105c-16.994,11.164-34.122,17.77-38.554,19.389
		c-0.716,0.268-1.11,0.396-1.11,0.396s0.396-0.137,1.11-0.396c4.245-1.588,20.113-8.172,35.769-23.086
		c9.719-9.26,21.164-12.572,29.759-13.648c-10.754-13.78-19.028-29.592-24.171-46.756c-8.764,8.355-23.263,24.732-29.779,46.631
		C78.774,338.156,43.462,353.8,43.462,353.8s44.811-7.827,66.687-22.711c14.23-9.678,35.397-9.231,48.458-7.739
		C156.045,321.001,153.573,318.564,151.188,316.039z"/>
	<path fill="#1C86E5" d="M369.467,308.734c-2.436,2.957-4.986,5.809-7.646,8.559c-1.426,10.392-2.115,28.117,6.518,41.256
		c11.16,16.994,17.77,34.121,19.389,38.553c0.266,0.719,0.396,1.111,0.396,1.111s-0.137-0.395-0.396-1.111
		c-1.59-4.243-8.174-20.111-23.086-35.768c-10.734-11.266-13.482-24.854-14.01-33.633c-13.975,11.666-30.205,20.713-47.949,26.389
		c7.771,8.476,24.85,24.49,48.184,31.438c32.486,9.666,48.127,44.979,48.127,44.979s-7.83-44.812-22.709-66.688
		C364.705,346.803,367.607,319.863,369.467,308.734z"/>
	<path fill="#1C86E5" d="M244.881,360.43c-5.795,4.84-13.098,12.6-15.078,22.166c-2.947,14.229-8.266,26.228-9.684,29.282
		c-0.229,0.494-0.359,0.762-0.359,0.762s0.131-0.27,0.359-0.762c1.344-2.949,6.034-14.297,6.409-29.744
		c0.246-10.153,4.838-17.926,8.811-22.774c-12.801-1.864-25.049-5.428-36.515-10.448c-0.192,8.676,0.782,24.198,8.521,38.489
		c11.532,21.302,1.591,47.054,1.591,47.054s18.689-26.605,22.224-45.179c2.313-12.137,13.316-22.646,20.676-28.479
		C249.498,360.729,247.179,360.607,244.881,360.43z"/>
</g>
<g>
	<path fill="#E8981B" d="M1500.691,711.326c-19.369,0-35.071,15.701-35.071,35.068c0,19.369,15.702,35.07,35.071,35.07
		c19.368,0,35.07-15.701,35.07-35.07C1535.762,727.027,1520.06,711.326,1500.691,711.326z M1500.691,773.794
		c-15.133,0-27.399-12.266-27.399-27.398S1485.561,719,1500.691,719s27.398,12.268,27.398,27.396
		C1528.091,761.529,1515.823,773.794,1500.691,773.794z"/>
	<circle fill="#E8981B" cx="1500.691" cy="746.396" r="21.92"/>
</g>
<path fill="#E8981B" d="M1437.879,653.566l62.813,101.195l62.813-101.195H1437.879z M1500.69,724.908l-34.794-56.061h69.589
	L1500.69,724.908z"/>
<g>
	<path fill="#E8981B" d="M1446.598,624.775c-19.368,0-35.07,15.699-35.07,35.068s15.702,35.072,35.07,35.072
		c19.369,0,35.071-15.703,35.071-35.072C1481.669,640.476,1465.968,624.775,1446.598,624.775z M1446.598,687.246
		c-15.132,0-27.398-12.27-27.398-27.398c0-15.131,12.27-27.396,27.398-27.396c15.133,0,27.396,12.268,27.396,27.396
		C1473.995,674.978,1461.73,687.246,1446.598,687.246z"/>
	<circle fill="#E8981B" cx="1446.598" cy="659.846" r="21.919"/>
</g>
<g>
	<path fill="#E8981B" d="M1555.24,624.775c-19.369,0-35.069,15.699-35.069,35.068s15.701,35.072,35.069,35.072
		s35.07-15.703,35.07-35.072C1590.311,640.476,1574.61,624.775,1555.24,624.775z M1555.24,687.246
		c-15.133,0-27.396-12.27-27.396-27.398c0-15.131,12.267-27.396,27.396-27.396s27.398,12.268,27.398,27.396
		C1582.641,674.978,1570.374,687.246,1555.24,687.246z"/>
	<circle fill="#E8981B" cx="1555.24" cy="659.846" r="21.919"/>
</g>
<g>
	<path fill="#E8981B" d="M1235.925,405.054c-45.531,0-82.443,36.91-82.443,82.441c0,45.533,36.912,82.441,82.443,82.441
		c45.526,0,82.438-36.908,82.438-82.441C1318.364,441.964,1281.451,405.054,1235.925,405.054z M1235.925,551.904
		c-35.573,0-64.408-28.836-64.408-64.408c0-35.57,28.835-64.406,64.408-64.406c35.567,0,64.403,28.836,64.403,64.406
		C1300.328,523.068,1271.492,551.904,1235.925,551.904z"/>
	<circle fill="#E8981B" cx="1235.924" cy="487.496" r="51.525"/>
</g>
<g>
	<path fill="#E8981B" d="M1108.765,201.601c-45.529,0-82.44,36.91-82.44,82.441s36.911,82.443,82.44,82.443
		c45.53,0,82.439-36.912,82.439-82.443S1154.297,201.601,1108.765,201.601z M1108.765,348.451
		c-35.571,0-64.406-28.834-64.406-64.406c0-35.569,28.835-64.409,64.406-64.409c35.573,0,64.408,28.839,64.408,64.409
		C1173.174,319.617,1144.339,348.451,1108.765,348.451z"/>
	<circle fill="#E8981B" cx="1108.766" cy="284.043" r="51.525"/>
</g>
<g>
	<path fill="#E8981B" d="M1364.156,201.601c-45.53,0-82.439,36.91-82.439,82.441s36.91,82.443,82.439,82.443
		s82.44-36.912,82.44-82.443S1409.687,201.601,1364.156,201.601z M1364.156,348.451c-35.571,0-64.407-28.834-64.407-64.406
		c0-35.569,28.837-64.409,64.407-64.409s64.406,28.839,64.406,64.409C1428.563,319.617,1399.728,348.451,1364.156,348.451z"/>
	<circle fill="#E8981B" cx="1364.156" cy="284.043" r="51.525"/>
</g>
<path fill="#E8981B" d="M1088.267,269.279l147.657,237.891l147.653-237.891H1088.267z M1335.001,278.333l-5.334,5.709
	l-182.666-5.709H1335.001z M1123.001,307l8.666-4l88.334,164L1123.001,307z M1235.923,436.984l-81.791-131.775h163.584
	L1235.923,436.984z M1252.335,448.333l98-140l-88,146L1252.335,448.333z"/>
</svg>
